<svg xmlns="http://www.w3.org/2000/svg" viewBox="0 0 512 512">
  <defs>
    <linearGradient id="aiGold" x1="0%" y1="0%" x2="100%" y2="100%">
      <stop offset="0%" stop-color="#FDE047" />
      <stop offset="100%" stop-color="#CA8A04" />
    </linearGradient>
    <linearGradient id="bg" x1="0%" y1="0%" x2="100%" y2="100%">
      <stop offset="0%" stop-color="#1E293B" />
      <stop offset="100%" stop-color="#020617" />
    </linearGradient>
  </defs>
  <rect width="512" height="512" rx="128" fill="url(#bg)" />
  <path d="M256 64 c 0 100 -50 150 -150 150 c 100 0 150 50 150 150 c 0 -100 50 -150 150 -150 c -100 0 -150 -50 -150 -150 z" fill="url(#aiGold)" />
  <path d="M256 160 c 0 50 -25 75 -75 75 c 50 0 75 25 75 75 c 0 -50 25 -75 75 -75 c -50 0 -75 -25 -75 -75 z" fill="#FEF08A" />
</svg>
